# Blender v2.76 (sub 0) OBJ File: 'Grass02.blend'
# www.blender.org
mtllib Grass02.mtl
o Grass02_Grass02.001
v -22.500000 0.999996 22.500000
v 22.500000 0.999996 22.500000
v -22.500000 1.000003 -22.500000
v 22.500000 1.000003 -22.500000
v -22.500000 -1.000004 22.500000
v 22.500000 -1.000004 22.500000
v -22.500000 -0.999996 -22.500000
v 22.500000 -0.999996 -22.500000
vt 0.474099 0.525901
vt 0.025901 0.525901
vt 0.025901 0.974099
vt 0.474099 0.974099
vt 0.474099 0.025901
vt 0.025901 0.025901
vt 0.025901 0.474099
vt 0.474099 0.474099
vt 0.589343 0.502454
vt 0.527844 0.502454
vt 0.527844 0.751453
vt 0.589343 0.751453
vt 0.619641 0.702624
vt 0.681140 0.702624
vt 0.681140 0.453625
vt 0.619641 0.453625
vt 0.587100 0.775400
vt 0.537900 0.775400
vt 0.537900 0.974600
vt 0.587100 0.974600
vt 0.675281 0.727063
vt 0.613782 0.727063
vt 0.613782 0.976062
vt 0.675281 0.976062
vn 0.000000 1.000000 0.000000
vn 0.000000 -1.000000 -0.000000
vn 0.000000 0.000000 -1.000000
vn 0.000000 0.000000 1.000000
vn 1.000000 0.000000 0.000000
vn -1.000000 0.000000 0.000000
usemtl None
s off
f 1/1/1 2/2/1 4/3/1 3/4/1
f 5/5/2 7/6/2 8/7/2 6/8/2
f 4/9/3 8/10/3 7/11/3 3/12/3
f 1/13/4 5/14/4 6/15/4 2/16/4
f 2/17/5 6/18/5 8/19/5 4/20/5
f 3/21/6 7/22/6 5/23/6 1/24/6
