# MagicaVoxel @ ephtracy

# material
mtllib Bullet.mtl
usemtl palette

# normals
vn -1 0 0
vn 1 0 0
vn 0 0 1
vn 0 0 -1
vn 0 -1 0
vn 0 1 0

# texcoords
vt 0.0175781 0.5
vt 0.0410156 0.5
vt 0.0449219 0.5
vt 0.994141 0.5

# verts and faces
v -3.5 0 2.5
v -3.5 0 -2.5
v -3.5 1 2.5
v -3.5 1 -2.5
v -3.5 10 2.5
v -3.5 10 -2.5
v -3.5 11 2.5
v -3.5 11 1.5
v -3.5 11 -1.5
v -3.5 11 -2.5
v -3.5 12 1.5
v -3.5 12 -1.5
f -10/1/1 -11/1/1 -12/1/1
f -9/1/1 -11/1/1 -10/1/1
f -8/4/1 -9/4/1 -10/4/1
f -7/4/1 -9/4/1 -8/4/1
f -6/3/1 -7/3/1 -8/3/1
f -5/3/1 -7/3/1 -6/3/1
f -4/3/1 -7/3/1 -5/3/1
f -3/3/1 -7/3/1 -4/3/1
f -2/3/1 -4/3/1 -5/3/1
f -1/3/1 -4/3/1 -2/3/1
v -2.5 0 3.5
v -2.5 0 2.5
v -2.5 0 -2.5
v -2.5 0 -3.5
v -2.5 1 3.5
v -2.5 1 2.5
v -2.5 1 -2.5
v -2.5 1 -3.5
v -2.5 10 3.5
v -2.5 10 2.5
v -2.5 10 -2.5
v -2.5 10 -3.5
v -2.5 11 3.5
v -2.5 11 2.5
v -2.5 11 1.5
v -2.5 11 -1.5
v -2.5 11 -2.5
v -2.5 11 -3.5
v -2.5 12 2.5
v -2.5 12 1.5
v -2.5 12 -1.5
v -2.5 12 -2.5
v -2.5 13 1.5
v -2.5 13 -1.5
f -20/1/1 -23/1/1 -24/1/1
f -19/1/1 -23/1/1 -20/1/1
f -18/1/1 -21/1/1 -22/1/1
f -17/1/1 -21/1/1 -18/1/1
f -16/4/1 -19/4/1 -20/4/1
f -15/4/1 -19/4/1 -16/4/1
f -14/4/1 -17/4/1 -18/4/1
f -13/4/1 -17/4/1 -14/4/1
f -12/3/1 -15/3/1 -16/3/1
f -11/3/1 -15/3/1 -12/3/1
f -8/3/1 -13/3/1 -14/3/1
f -7/3/1 -13/3/1 -8/3/1
f -6/3/1 -10/3/1 -11/3/1
f -5/3/1 -10/3/1 -6/3/1
f -4/3/1 -8/3/1 -9/3/1
f -3/3/1 -8/3/1 -4/3/1
f -2/3/1 -4/3/1 -5/3/1
f -1/3/1 -4/3/1 -2/3/1
v -1.5 11 3.5
v -1.5 11 2.5
v -1.5 11 -2.5
v -1.5 11 -3.5
v -1.5 12 3.5
v -1.5 12 2.5
v -1.5 12 1.5
v -1.5 12 -1.5
v -1.5 12 -2.5
v -1.5 12 -3.5
v -1.5 13 2.5
v -1.5 13 1.5
v -1.5 13 -1.5
v -1.5 13 -2.5
f -10/3/1 -13/3/1 -14/3/1
f -9/3/1 -13/3/1 -10/3/1
f -6/3/1 -11/3/1 -12/3/1
f -5/3/1 -11/3/1 -6/3/1
f -4/3/1 -8/3/1 -9/3/1
f -3/3/1 -8/3/1 -4/3/1
f -2/3/1 -6/3/1 -7/3/1
f -1/3/1 -6/3/1 -2/3/1
v 1.5 11 3.5
v 1.5 11 2.5
v 1.5 11 -2.5
v 1.5 11 -3.5
v 1.5 12 3.5
v 1.5 12 2.5
v 1.5 12 1.5
v 1.5 12 -1.5
v 1.5 12 -2.5
v 1.5 12 -3.5
v 1.5 13 2.5
v 1.5 13 1.5
v 1.5 13 -1.5
v 1.5 13 -2.5
f -14/3/2 -13/3/2 -10/3/2
f -10/3/2 -13/3/2 -9/3/2
f -12/3/2 -11/3/2 -6/3/2
f -6/3/2 -11/3/2 -5/3/2
f -9/3/2 -8/3/2 -4/3/2
f -4/3/2 -8/3/2 -3/3/2
f -7/3/2 -6/3/2 -2/3/2
f -2/3/2 -6/3/2 -1/3/2
v 2.5 0 3.5
v 2.5 0 2.5
v 2.5 0 -2.5
v 2.5 0 -3.5
v 2.5 1 3.5
v 2.5 1 2.5
v 2.5 1 -2.5
v 2.5 1 -3.5
v 2.5 9 2.5
v 2.5 9 -2.5
v 2.5 10 3.5
v 2.5 10 2.5
v 2.5 10 -2.5
v 2.5 10 -3.5
v 2.5 11 3.5
v 2.5 11 2.5
v 2.5 11 1.5
v 2.5 11 -1.5
v 2.5 11 -2.5
v 2.5 11 -3.5
v 2.5 12 2.5
v 2.5 12 1.5
v 2.5 12 -1.5
v 2.5 12 -2.5
v 2.5 13 1.5
v 2.5 13 -1.5
f -26/1/2 -25/1/2 -22/1/2
f -22/1/2 -25/1/2 -21/1/2
f -24/1/2 -23/1/2 -20/1/2
f -20/1/2 -23/1/2 -19/1/2
f -22/4/2 -21/4/2 -18/4/2
f -20/4/2 -19/4/2 -17/4/2
f -22/4/2 -18/4/2 -16/4/2
f -16/4/2 -18/4/2 -15/4/2
f -17/4/2 -19/4/2 -14/4/2
f -14/4/2 -19/4/2 -13/4/2
f -16/3/2 -15/3/2 -12/3/2
f -12/3/2 -15/3/2 -11/3/2
f -14/3/2 -13/3/2 -8/3/2
f -8/3/2 -13/3/2 -7/3/2
f -11/3/2 -10/3/2 -6/3/2
f -6/3/2 -10/3/2 -5/3/2
f -9/3/2 -8/3/2 -4/3/2
f -4/3/2 -8/3/2 -3/3/2
f -5/3/2 -4/3/2 -2/3/2
f -2/3/2 -4/3/2 -1/3/2
v 3.5 0 2.5
v 3.5 0 -2.5
v 3.5 1 2.5
v 3.5 1 -2.5
v 3.5 9 2.5
v 3.5 9 -2.5
v 3.5 11 2.5
v 3.5 11 1.5
v 3.5 11 -1.5
v 3.5 11 -2.5
v 3.5 12 1.5
v 3.5 12 -1.5
f -12/1/2 -11/1/2 -10/1/2
f -10/1/2 -11/1/2 -9/1/2
f -10/4/2 -9/4/2 -8/4/2
f -8/4/2 -9/4/2 -7/4/2
f -8/3/2 -7/3/2 -6/3/2
f -6/3/2 -7/3/2 -5/3/2
f -5/3/2 -7/3/2 -4/3/2
f -4/3/2 -7/3/2 -3/3/2
f -5/3/2 -4/3/2 -2/3/2
f -2/3/2 -4/3/2 -1/3/2
v -2.5 0 3.5
v -2.5 1 3.5
v -2.5 10 3.5
v -2.5 11 3.5
v -1.5 11 3.5
v -1.5 12 3.5
v 1.5 11 3.5
v 1.5 12 3.5
v 2.5 0 3.5
v 2.5 1 3.5
v 2.5 10 3.5
v 2.5 11 3.5
f -8/3/3 -9/3/3 -10/3/3
f -6/3/3 -8/3/3 -10/3/3
f -6/3/3 -7/3/3 -8/3/3
f -5/3/3 -7/3/3 -6/3/3
f -4/1/3 -11/1/3 -12/1/3
f -3/4/3 -10/4/3 -11/4/3
f -3/1/3 -11/1/3 -4/1/3
f -2/3/3 -6/3/3 -10/3/3
f -2/4/3 -10/4/3 -3/4/3
f -1/3/3 -6/3/3 -2/3/3
v -3.5 0 2.5
v -3.5 1 2.5
v -3.5 10 2.5
v -3.5 11 2.5
v -2.5 0 2.5
v -2.5 1 2.5
v -2.5 10 2.5
v -2.5 11 2.5
v -2.5 12 2.5
v -1.5 11 2.5
v -1.5 12 2.5
v -1.5 13 2.5
v 1.5 11 2.5
v 1.5 12 2.5
v 1.5 13 2.5
v 2.5 0 2.5
v 2.5 1 2.5
v 2.5 9 2.5
v 2.5 10 2.5
v 2.5 11 2.5
v 2.5 12 2.5
v 3.5 0 2.5
v 3.5 1 2.5
v 3.5 9 2.5
v 3.5 11 2.5
f -21/1/3 -24/1/3 -25/1/3
f -20/4/3 -23/4/3 -24/4/3
f -20/1/3 -24/1/3 -21/1/3
f -19/3/3 -22/3/3 -23/3/3
f -19/4/3 -23/4/3 -20/4/3
f -18/3/3 -22/3/3 -19/3/3
f -16/3/3 -17/3/3 -18/3/3
f -15/3/3 -17/3/3 -16/3/3
f -12/3/3 -14/3/3 -15/3/3
f -11/3/3 -14/3/3 -12/3/3
f -6/3/3 -12/3/3 -13/3/3
f -5/3/3 -12/3/3 -6/3/3
f -4/1/3 -9/1/3 -10/1/3
f -3/4/3 -8/4/3 -9/4/3
f -3/1/3 -9/1/3 -4/1/3
f -2/3/3 -7/3/3 -8/3/3
f -2/4/3 -8/4/3 -3/4/3
f -2/3/3 -6/3/3 -7/3/3
f -1/3/3 -6/3/3 -2/3/3
v -3.5 11 1.5
v -3.5 12 1.5
v -2.5 11 1.5
v -2.5 12 1.5
v -2.5 13 1.5
v -1.5 12 1.5
v -1.5 13 1.5
v 1.5 12 1.5
v 1.5 13 1.5
v 2.5 11 1.5
v 2.5 12 1.5
v 2.5 13 1.5
v 3.5 11 1.5
v 3.5 12 1.5
f -12/3/3 -13/3/3 -14/3/3
f -11/3/3 -13/3/3 -12/3/3
f -9/3/3 -10/3/3 -11/3/3
f -8/3/3 -10/3/3 -9/3/3
f -4/3/3 -6/3/3 -7/3/3
f -3/3/3 -6/3/3 -4/3/3
f -2/3/3 -4/3/3 -5/3/3
f -1/3/3 -4/3/3 -2/3/3
v -3.5 11 -1.5
v -3.5 12 -1.5
v -2.5 11 -1.5
v -2.5 12 -1.5
v -2.5 13 -1.5
v -1.5 12 -1.5
v -1.5 13 -1.5
v 1.5 12 -1.5
v 1.5 13 -1.5
v 2.5 11 -1.5
v 2.5 12 -1.5
v 2.5 13 -1.5
v 3.5 11 -1.5
v 3.5 12 -1.5
f -14/3/4 -13/3/4 -12/3/4
f -12/3/4 -13/3/4 -11/3/4
f -11/3/4 -10/3/4 -9/3/4
f -9/3/4 -10/3/4 -8/3/4
f -7/3/4 -6/3/4 -4/3/4
f -4/3/4 -6/3/4 -3/3/4
f -5/3/4 -4/3/4 -2/3/4
f -2/3/4 -4/3/4 -1/3/4
v -3.5 0 -2.5
v -3.5 1 -2.5
v -3.5 10 -2.5
v -3.5 11 -2.5
v -2.5 0 -2.5
v -2.5 1 -2.5
v -2.5 10 -2.5
v -2.5 11 -2.5
v -2.5 12 -2.5
v -1.5 11 -2.5
v -1.5 12 -2.5
v -1.5 13 -2.5
v 1.5 11 -2.5
v 1.5 12 -2.5
v 1.5 13 -2.5
v 2.5 0 -2.5
v 2.5 1 -2.5
v 2.5 9 -2.5
v 2.5 10 -2.5
v 2.5 11 -2.5
v 2.5 12 -2.5
v 3.5 0 -2.5
v 3.5 1 -2.5
v 3.5 9 -2.5
v 3.5 11 -2.5
f -25/1/4 -24/1/4 -21/1/4
f -24/4/4 -23/4/4 -20/4/4
f -21/1/4 -24/1/4 -20/1/4
f -23/3/4 -22/3/4 -19/3/4
f -20/4/4 -23/4/4 -19/4/4
f -19/3/4 -22/3/4 -18/3/4
f -18/3/4 -17/3/4 -16/3/4
f -16/3/4 -17/3/4 -15/3/4
f -15/3/4 -14/3/4 -12/3/4
f -12/3/4 -14/3/4 -11/3/4
f -13/3/4 -12/3/4 -6/3/4
f -6/3/4 -12/3/4 -5/3/4
f -10/1/4 -9/1/4 -4/1/4
f -9/4/4 -8/4/4 -3/4/4
f -4/1/4 -9/1/4 -3/1/4
f -8/3/4 -7/3/4 -2/3/4
f -3/4/4 -8/4/4 -2/4/4
f -7/3/4 -6/3/4 -2/3/4
f -2/3/4 -6/3/4 -1/3/4
v -2.5 0 -3.5
v -2.5 1 -3.5
v -2.5 10 -3.5
v -2.5 11 -3.5
v -1.5 11 -3.5
v -1.5 12 -3.5
v 1.5 11 -3.5
v 1.5 12 -3.5
v 2.5 0 -3.5
v 2.5 1 -3.5
v 2.5 10 -3.5
v 2.5 11 -3.5
f -10/3/4 -9/3/4 -8/3/4
f -10/3/4 -8/3/4 -6/3/4
f -8/3/4 -7/3/4 -6/3/4
f -6/3/4 -7/3/4 -5/3/4
f -12/1/4 -11/1/4 -4/1/4
f -11/4/4 -10/4/4 -3/4/4
f -4/1/4 -11/1/4 -3/1/4
f -10/3/4 -6/3/4 -2/3/4
f -3/4/4 -10/4/4 -2/4/4
f -2/3/4 -6/3/4 -1/3/4
v -2.5 0 3.5
v 2.5 0 3.5
v -3.5 0 2.5
v -2.5 0 2.5
v -1.5 0 2.5
v 1.5 0 2.5
v 2.5 0 2.5
v 3.5 0 2.5
v -2.5 0 1.5
v -1.5 0 1.5
v 1.5 0 1.5
v 2.5 0 1.5
v -0.5 0 0.5
v 0.5 0 0.5
v -0.5 0 -0.5
v 0.5 0 -0.5
v -2.5 0 -1.5
v -1.5 0 -1.5
v 1.5 0 -1.5
v 2.5 0 -1.5
v -3.5 0 -2.5
v -2.5 0 -2.5
v -1.5 0 -2.5
v 1.5 0 -2.5
v 2.5 0 -2.5
v 3.5 0 -2.5
v -2.5 0 -3.5
v 2.5 0 -3.5
f -25/1/5 -27/1/5 -28/1/5
f -24/1/5 -27/1/5 -25/1/5
f -23/1/5 -27/1/5 -24/1/5
f -22/1/5 -27/1/5 -23/1/5
f -20/1/5 -25/1/5 -26/1/5
f -20/1/5 -24/1/5 -25/1/5
f -19/2/5 -23/2/5 -24/2/5
f -19/1/5 -24/1/5 -20/1/5
f -18/1/5 -21/1/5 -22/1/5
f -18/2/5 -23/2/5 -19/2/5
f -18/1/5 -22/1/5 -23/1/5
f -17/1/5 -21/1/5 -18/1/5
f -16/1/5 -18/1/5 -19/1/5
f -15/1/5 -18/1/5 -16/1/5
f -14/1/5 -16/1/5 -19/1/5
f -14/2/5 -15/2/5 -16/2/5
f -13/1/5 -18/1/5 -15/1/5
f -13/2/5 -15/2/5 -14/2/5
f -12/2/5 -19/2/5 -20/2/5
f -12/1/5 -20/1/5 -26/1/5
f -11/1/5 -13/1/5 -14/1/5
f -11/2/5 -19/2/5 -12/2/5
f -11/1/5 -14/1/5 -19/1/5
f -10/1/5 -18/1/5 -13/1/5
f -10/1/5 -13/1/5 -11/1/5
f -10/2/5 -17/2/5 -18/2/5
f -9/1/5 -21/1/5 -17/1/5
f -9/2/5 -17/2/5 -10/2/5
f -8/1/5 -11/1/5 -12/1/5
f -8/1/5 -12/1/5 -26/1/5
f -7/1/5 -11/1/5 -8/1/5
f -6/2/5 -10/2/5 -11/2/5
f -6/1/5 -11/1/5 -7/1/5
f -5/1/5 -9/1/5 -10/1/5
f -5/2/5 -10/2/5 -6/2/5
f -4/1/5 -21/1/5 -9/1/5
f -4/1/5 -9/1/5 -5/1/5
f -3/1/5 -21/1/5 -4/1/5
f -2/1/5 -5/1/5 -6/1/5
f -2/1/5 -6/1/5 -7/1/5
f -2/1/5 -4/1/5 -5/1/5
f -1/1/5 -4/1/5 -2/1/5
v -2.5 11 3.5
v -1.5 11 3.5
v 1.5 11 3.5
v 2.5 11 3.5
v -3.5 11 2.5
v -2.5 11 2.5
v -1.5 11 2.5
v 1.5 11 2.5
v 2.5 11 2.5
v 3.5 11 2.5
v -3.5 11 1.5
v -2.5 11 1.5
v 2.5 11 1.5
v 3.5 11 1.5
v -3.5 11 -1.5
v -2.5 11 -1.5
v 2.5 11 -1.5
v 3.5 11 -1.5
v -3.5 11 -2.5
v -2.5 11 -2.5
v -1.5 11 -2.5
v 1.5 11 -2.5
v 2.5 11 -2.5
v 3.5 11 -2.5
v -2.5 11 -3.5
v -1.5 11 -3.5
v 1.5 11 -3.5
v 2.5 11 -3.5
f -28/3/6 -27/3/6 -23/3/6
f -23/3/6 -27/3/6 -22/3/6
f -26/3/6 -25/3/6 -21/3/6
f -21/3/6 -25/3/6 -20/3/6
f -24/3/6 -23/3/6 -18/3/6
f -18/3/6 -23/3/6 -17/3/6
f -20/3/6 -19/3/6 -16/3/6
f -16/3/6 -19/3/6 -15/3/6
f -14/3/6 -13/3/6 -10/3/6
f -10/3/6 -13/3/6 -9/3/6
f -12/3/6 -11/3/6 -6/3/6
f -6/3/6 -11/3/6 -5/3/6
f -9/3/6 -8/3/6 -4/3/6
f -4/3/6 -8/3/6 -3/3/6
f -7/3/6 -6/3/6 -2/3/6
f -2/3/6 -6/3/6 -1/3/6
v -1.5 12 3.5
v 1.5 12 3.5
v -2.5 12 2.5
v -1.5 12 2.5
v 1.5 12 2.5
v 2.5 12 2.5
v -3.5 12 1.5
v -2.5 12 1.5
v -1.5 12 1.5
v 1.5 12 1.5
v 2.5 12 1.5
v 3.5 12 1.5
v -3.5 12 -1.5
v -2.5 12 -1.5
v -1.5 12 -1.5
v 1.5 12 -1.5
v 2.5 12 -1.5
v 3.5 12 -1.5
v -2.5 12 -2.5
v -1.5 12 -2.5
v 1.5 12 -2.5
v 2.5 12 -2.5
v -1.5 12 -3.5
v 1.5 12 -3.5
f -24/3/6 -23/3/6 -21/3/6
f -21/3/6 -23/3/6 -20/3/6
f -22/3/6 -21/3/6 -17/3/6
f -17/3/6 -21/3/6 -16/3/6
f -20/3/6 -19/3/6 -15/3/6
f -15/3/6 -19/3/6 -14/3/6
f -18/3/6 -17/3/6 -12/3/6
f -12/3/6 -17/3/6 -11/3/6
f -14/3/6 -13/3/6 -8/3/6
f -8/3/6 -13/3/6 -7/3/6
f -11/3/6 -10/3/6 -6/3/6
f -6/3/6 -10/3/6 -5/3/6
f -9/3/6 -8/3/6 -4/3/6
f -4/3/6 -8/3/6 -3/3/6
f -5/3/6 -4/3/6 -2/3/6
f -2/3/6 -4/3/6 -1/3/6
v -1.5 13 2.5
v 1.5 13 2.5
v -2.5 13 1.5
v -1.5 13 1.5
v 1.5 13 1.5
v 2.5 13 1.5
v -2.5 13 -1.5
v -1.5 13 -1.5
v 1.5 13 -1.5
v 2.5 13 -1.5
v -1.5 13 -2.5
v 1.5 13 -2.5
f -12/3/6 -11/3/6 -9/3/6
f -9/3/6 -11/3/6 -8/3/6
f -10/3/6 -9/3/6 -6/3/6
f -8/3/6 -7/3/6 -6/3/6
f -9/3/6 -8/3/6 -6/3/6
f -6/3/6 -7/3/6 -5/3/6
f -5/3/6 -7/3/6 -4/3/6
f -4/3/6 -7/3/6 -3/3/6
f -5/3/6 -4/3/6 -2/3/6
f -2/3/6 -4/3/6 -1/3/6
